<?xml version="1.0" standalone="no"?>
<!DOCTYPE svg PUBLIC "-//W3C//DTD SVG 1.1//EN" "http://www.w3.org/Graphics/SVG/1.1/DTD/svg11.dtd" >
<svg xmlns="http://www.w3.org/2000/svg">
<metadata>Generated by IcoMoon</metadata>
<defs>
<font id="icomoon" horiz-adv-x="1024">
<font-face units-per-em="1024" ascent="960" descent="-64" />
<missing-glyph horiz-adv-x="1024" />
<glyph unicode="&#x20;" horiz-adv-x="512" d="" />
<glyph unicode="&#xe900;" glyph-name="info" horiz-adv-x="1026" d="M515.2 953.6c-279.824 0-506.667-226.842-506.667-506.667s226.842-506.667 506.667-506.667c279.824 0 506.667 226.842 506.667 506.667s-226.842 506.667-506.667 506.667zM452.267 652.533c0 25.96 21.24 47.2 47.2 47.2h31.467c25.96 0 47.2-21.24 47.2-47.2v-31.467c0-25.96-21.24-47.2-47.2-47.2h-31.467c-25.96 0-47.2 21.24-47.2 47.2v31.467zM642.133 194.133h-253.867v63.147h63.467v189.44h-63.467v63.147h190.4v-252.587h63.467v-63.147z" />
<glyph unicode="&#xe901;" glyph-name="arrow-forward" d="M512.948 938.667l-87.23-87.23 338.015-340.741h-736v-125.393h736l-338.015-340.741 87.23-87.23 485.215 490.667z" />
<glyph unicode="&#xe902;" glyph-name="caret-down" horiz-adv-x="1026" d="M264.129 772.921l-97.671-100.194c-3.29-3.375-3.221-8.777 0.154-12.067l389.254-379.452c3.375-3.29 8.777-3.221 12.067 0.154 0.012 0.013 0.025 0.025 0.037 0.038l362.878 376.936c3.269 3.395 3.166 8.797-0.229 12.066l-100.802 97.043c-3.395 3.269-8.797 3.166-12.066-0.229l-253.316-263.13c-3.269-3.395-8.671-3.498-12.066-0.229-0.013 0.012-0.026 0.025-0.038 0.037l-276.135 269.181c-3.375 3.29-8.777 3.221-12.067-0.154z" />
<glyph unicode="&#xe903;" glyph-name="caret-right" horiz-adv-x="1026" d="M302.858 242.639l100.194-97.671c3.375-3.29 8.777-3.221 12.067 0.154l379.452 389.254c3.29 3.375 3.221 8.777-0.154 12.067-0.013 0.012-0.025 0.025-0.038 0.037l-376.936 362.878c-3.395 3.269-8.797 3.166-12.066-0.229l-97.043-100.802c-3.269-3.395-3.166-8.797 0.229-12.066l263.13-253.316c3.395-3.269 3.498-8.671 0.229-12.066-0.012-0.013-0.025-0.026-0.037-0.038l-269.181-276.135c-3.29-3.375-3.221-8.777 0.154-12.067z" />
<glyph unicode="&#xe904;" glyph-name="checkmark" d="M333.015 230.658l-232.704 232.704-78.977-78.977 311.681-311.681 669.652 669.652-78.977 78.977z" />
<glyph unicode="&#xe905;" glyph-name="cross" d="M512.869 724.757c-149.789 0-271.228-123.915-271.228-276.757s121.439-276.757 271.228-276.757c149.789 0 271.228 123.915 271.228 276.757s-121.439 276.757-271.228 276.757v0zM667.502 347.149l-55.828-56.966-98.804 100.851-98.837-100.819-55.828 56.966 98.869 100.819-98.837 100.851 55.828 56.933 98.804-100.819 98.837 100.851 55.828-56.966-98.869-100.851 98.837-100.851z" />
<glyph unicode="&#xe906;" glyph-name="drag" d="M263.983 888.682h180.956v-180.956h-180.956v180.956zM510.936 888.682h180.956v-180.956h-180.956v180.956zM263.983 654.503h180.956v-180.956h-180.956v180.956zM510.936 654.503h180.956v-180.956h-180.956v180.956zM263.983 420.324h180.956v-180.956h-180.956v180.956zM510.936 420.324h180.956v-180.956h-180.956v180.956zM263.983 186.146h180.956v-180.956h-180.956v180.956zM510.936 186.146h180.956v-180.956h-180.956v180.956z" />
<glyph unicode="&#xe907;" glyph-name="edit" d="M939.138 875.498c-26.35 26.349-61.383 40.859-98.645 40.859-37.264 0-72.296-14.51-98.645-40.859l-597.906-597.906c-2.423-2.423-4.284-5.346-5.456-8.567l-93.789-257.92c-3.114-8.561-0.987-18.151 5.456-24.593 4.475-4.477 10.469-6.868 16.582-6.868 2.687 0 5.395 0.459 8.009 1.412l257.92 93.789c3.219 1.172 6.145 3.033 8.568 5.456l597.906 597.906c26.349 26.349 40.862 61.382 40.862 98.645s-14.51 72.296-40.862 98.645v0.001zM311.751 117.14l-205.813-74.84 74.841 205.811 519.030 519.030 130.973-130.973-519.030-519.029zM905.98 711.367l-42.039-42.039-130.973 130.973 42.039 42.039c17.491 17.491 40.749 27.124 65.486 27.124s47.994-9.634 65.486-27.126c17.491-17.491 27.126-40.749 27.126-65.486s-9.635-47.994-27.126-65.486v0.001z" />
<glyph unicode="&#xe908;" glyph-name="failed" d="M937.422 787.711l-86.068 86.068-339.711-339.711-339.711 339.711-86.068-86.068 339.711-339.711-339.711-339.711 86.068-86.068 339.711 339.711 339.711-339.711 86.068 86.068-339.711 339.711z" />
<glyph unicode="&#xe909;" glyph-name="help" d="M520.484-42.667c262.504 0 482.183 219.679 482.183 482.183 0 279.472-219.679 499.151-482.183 499.151-279.472 0-499.151-219.679-499.151-499.151 0-262.504 219.679-482.183 499.151-482.183v0zM520.484-11.558c-262.291 0-468.042 205.751-468.042 451.074 0 262.291 205.751 468.042 468.042 468.042 245.323 0 451.074-205.751 451.074-468.042 0-245.323-205.751-451.074-451.074-451.074v0zM522.458 336.293h-43.32v36.835c0.433 11.080 1.739 21.333 4.192 31.168 2.772 8.437 6.39 16.66 11.179 24.084 4.456 7.194 9.681 13.792 15.372 19.834 5.967 5.734 11.896 11.52 18.167 17.001l16.769 15.584c9.922 7.968 18.262 17.307 25.154 28.334 6.374 10.088 9.69 23.285 9.782 39.668-0.092 10.822-2.102 20.974-5.59 29.751-4.552 9.089-9.978 16.601-16.769 22.668-6.876 6.115-14.815 10.785-23.756 14.167-9.147 3.114-18.895 4.739-29.346 4.25-21.706 0.488-39.292-6.212-53.102-19.834-13.122-13.177-21.463-30.231-25.154-51.002l-40.525 7.084c6.030 31.96 19.797 56.83 41.923 75.086 20.885 17.883 47.314 26.918 78.256 26.918 16.49 0 31.664-2.335 46.115-7.084 14.089-4.591 26.449-11.493 36.333-21.251 11.019-8.515 19.359-19.783 25.154-32.585 6.667-13.998 9.782-29.225 9.782-46.752 0-12.522-1.407-23.891-4.192-34.001-2.842-9.38-6.761-18.111-11.179-25.501-5.631-8.040-11.56-15.044-18.167-21.251-7.060-6.381-14.296-12.776-22.359-19.834-8.016-6.342-15.151-12.636-20.961-18.417-5.846-5.588-10.569-11.577-13.974-18.417-3.831-5.748-6.443-12.752-8.385-19.834-1.274-8.348-2.078-17.687-1.397-28.334v-28.334zM537.83 248.456c0-8.448-3.041-15.991-9.782-22.668-5.422-6.598-13.327-9.917-23.756-9.917-9.032 0-16.937 3.319-22.359 9.917-6.741 6.677-9.782 14.22-9.782 22.668s3.041 15.991 9.782 22.668c5.422 6.598 13.327 9.917 22.359 9.917 10.429 0 18.335-3.319 23.756-9.917 6.741-6.677 9.782-14.22 9.782-22.668v0z" />
<glyph unicode="&#xe90a;" glyph-name="external_link" d="M798.55 740.296h-215.354v75.382h340.62v-50.254l2.791-2.791-2.791-2.805v-290.348h-75.382v214.589l-480.214-482.617-53.046 53.046 483.382 485.799zM172.778 59.062h527.677v332.243l75.382 75.382v-483.009h-678.443v686.82h496.967l-64.213-75.382h-357.37v-536.054z" />
<glyph unicode="&#xe90b;" glyph-name="stopped" d="M302.692 420.593h440.93v86.511h-463.253v-86.511zM992 460.371c0-265.103-214.897-480-480-480s-480 214.897-480 480c0 265.103 214.897 480 480 480s480-214.897 480-480zM512 70.115c215.532 0 390.253 174.723 390.253 390.253s-174.723 390.253-390.253 390.253c-215.532 0-390.253-174.723-390.253-390.253s174.723-390.253 390.253-390.253z" />
<glyph unicode="&#xe90c;" glyph-name="cloud" d="M195.232 444.731c-56.845-13.107-99.232-64.079-99.232-124.731 0-70.692 57.534-128 128.090-128h543.82c70.742 0 128.090 57.451 128.090 128 0 59.775-41.136 109.981-96.498 124.062v0c-6.127 73.885-68.035 131.938-143.502 131.938-34.439 0-66.055-12.090-90.834-32.257-26.285 74.707-97.471 128.257-181.166 128.257-106.039 0-192-85.961-192-192 0-12.048 1.11-23.836 3.232-35.269v0zM828.252 468.304c58.574-23.776 99.748-81.218 99.748-148.304 0-88.186-71.626-160-159.982-160h-544.036c-88.542 0-159.982 71.634-159.982 160 0 65.628 39.669 122.189 96.381 146.831v0c-0.253 4.357-0.381 8.748-0.381 13.169 0 123.712 100.288 224 224 224 83.608 0 156.518-45.806 195.002-113.692 23.258 11.333 49.385 17.692 76.998 17.692 84.757 0 155.521-59.912 172.252-139.696v0 0z" />
<glyph unicode="&#xe90d;" glyph-name="null" d="M120.294 488.449h782.661v-82.374h-782.661z" />
<glyph unicode="&#xe90e;" glyph-name="pending" d="M298.046 446.936c0-57.024-46.227-103.252-103.252-103.252s-103.252 46.227-103.252 103.252c0 57.024 46.227 103.252 103.252 103.252s103.252-46.227 103.252-103.252zM615.252 446.936c0-57.024-46.227-103.252-103.252-103.252s-103.252 46.227-103.252 103.252c0 57.024 46.227 103.252 103.252 103.252s103.252-46.227 103.252-103.252zM932.457 446.936c0-57.024-46.227-103.252-103.252-103.252s-103.252 46.227-103.252 103.252c0 57.024 46.227 103.252 103.252 103.252s103.252-46.227 103.252-103.252z" />
<glyph unicode="&#xe90f;" glyph-name="review" d="M163.476 635.587c-5.999 0-11.998 2.3-16.591 6.852l-70.302 70.402c-9.139 9.152-9.139 24.030 0 33.183s23.997 9.152 33.136 0l53.711-53.787 194.316 194.59c9.139 9.152 23.997 9.152 33.136 0s9.139-24.030 0-33.183l-210.907-211.205c-4.593-4.6-10.592-6.852-16.591-6.852h0.094zM979.297 678.605h-560.88c-12.9 0-23.37 10.84-23.37 24.197s10.47 24.197 23.37 24.197h560.88c12.9 0 23.37-10.84 23.37-24.197s-10.47-24.197-23.37-24.197v0zM163.476 304.891c-5.999 0-11.998 2.3-16.591 6.852l-70.302 70.402c-9.139 9.152-9.139 24.030 0 33.183s23.997 9.152 33.136 0l53.711-53.787 194.316 194.59c9.139 9.152 23.997 9.152 33.136 0s9.139-24.030 0-33.183l-210.907-211.205c-4.593-4.6-10.592-6.852-16.591-6.852h0.094zM979.297 353.286h-560.88c-12.9 0-23.37 10.84-23.37 24.197s10.47 24.197 23.37 24.197h560.88c12.9 0 23.37-10.84 23.37-24.197s-10.47-24.197-23.37-24.197v0zM163.476-17.739c-5.999 0-11.998 2.3-16.591 6.852l-70.302 70.402c-9.139 9.152-9.139 24.030 0 33.183s23.997 9.152 33.136 0l53.711-53.787 194.316 194.59c9.139 9.152 23.997 9.152 33.136 0s9.139-24.030 0-33.183l-210.907-211.205c-4.593-4.6-10.592-6.852-16.591-6.852h0.094zM979.297 25.279h-560.88c-12.9 0-23.37 10.84-23.37 24.197s10.47 24.197 23.37 24.197h560.88c12.9 0 23.37-10.84 23.37-24.197s-10.47-24.197-23.37-24.197v0z" />
<glyph unicode="&#xe910;" glyph-name="select" d="M314.421 201.912h-196.267c-42.256 0-75.487 33.056-75.487 72.468v591.819c0 39.412 33.231 72.468 75.487 72.468h688.443c42.256 0 75.487-33.056 75.487-72.468v-344.222c0-14.361-11.061-25.364-24.156-24.156-14.161-1.208-25.222 9.794-24.156 24.156v344.222c-1.066 12.348-12.126 23.351-27.175 24.156h-688.443c-15.049-0.805-26.11-11.807-27.175-24.156v-591.819c1.066-12.348 12.126-23.351 27.175-24.156h196.267c13.451 0.805 24.511-10.197 24.156-24.156 0.355-13.154-10.705-24.156-24.156-24.156v0zM685.817-42.667c-8.327 0.049-17.646 5.904-21.136 15.097l-84.546 208.345-147.955-166.072c-5.643-7.481-16.548-10.187-27.175-6.039-8.703 3.035-15.097 12.236-15.097 21.136v739.774c0 9.308 5.799 18.115 15.097 21.136 8.645 4.851 19.103 3.178 27.175-3.019l543.508-492.176c8.517-7.014 11.095-17.789 6.039-27.175-2.379-9.506-11.549-15.804-21.136-15.097h-211.364l84.546-214.384c5.65-11.169-0.545-25.487-12.078-30.195l-123.799-48.312c-4.346-2.429-7.468-3.019-9.058-3.019h-3.019zM586.174 250.224c1.996 0.37 3.382 0.271 6.039 0 7.247-1.404 14.329-7.167 18.117-15.097l90.585-223.442 75.487 30.195-87.565 223.442c-4.299 8.375-3.358 16.995 0 24.156 5.853 6.337 13.529 10.425 21.136 9.058h184.189l-455.943 413.67v-618.995l129.838 147.955c4.86 6.473 11.644 9.527 18.117 9.058v0z" />
<glyph unicode="&#xe911;" glyph-name="sort-down" d="M235.14 675.792l276.547-282.184 276.547 282.184 85.366-87.106-361.913-369.29-361.913 369.29z" />
<glyph unicode="&#xe912;" glyph-name="sort-up" d="M235.14 218.749l276.547 282.184 276.547-282.184 85.366 87.106-361.913 369.29-361.913-369.29z" />
<glyph unicode="&#xe913;" glyph-name="office" d="M0-64h512v1024h-512v-1024zM320 832h128v-128h-128v128zM320 576h128v-128h-128v128zM320 320h128v-128h-128v128zM64 832h128v-128h-128v128zM64 576h128v-128h-128v128zM64 320h128v-128h-128v128zM576 640h448v-64h-448zM576-64h128v256h192v-256h128v576h-448z" />
<glyph unicode="&#xe914;" glyph-name="lock" d="M592 512h-16v192c0 105.87-86.13 192-192 192h-128c-105.87 0-192-86.13-192-192v-192h-16c-26.4 0-48-21.6-48-48v-480c0-26.4 21.6-48 48-48h544c26.4 0 48 21.6 48 48v480c0 26.4-21.6 48-48 48zM192 704c0 35.29 28.71 64 64 64h128c35.29 0 64-28.71 64-64v-192h-256v192z" />
<glyph unicode="&#xe915;" glyph-name="trash" d="M780.113 802.132h-155.187v22.17c0 36.672-29.837 66.509-66.509 66.509h-88.678c-36.672 0-66.509-29.837-66.509-66.509v-22.17h-155.187c-36.672 0-66.509-29.837-66.509-66.509v-44.339c0-28.901 18.535-53.544 44.339-62.696v-558.053c0-36.675 29.837-66.509 66.509-66.509h443.392c36.675 0 66.509 29.834 66.509 66.509v558.053c25.804 9.152 44.339 33.795 44.339 62.696v44.339c0 36.672-29.834 66.509-66.509 66.509v0zM447.569 824.302c0 12.223 9.946 22.17 22.17 22.17h88.678c12.223 0 22.17-9.946 22.17-22.17v-22.17h-133.018v22.17zM735.774 48.366h-443.392c-12.223 0-22.17 9.946-22.17 22.17v554.24h487.731v-554.24c0-12.223-9.946-22.17-22.17-22.17v0zM802.283 691.284c0-12.223-9.946-22.17-22.17-22.17h-532.070c-12.223 0-22.17 9.946-22.17 22.17v44.339c0 12.223 9.946 22.17 22.17 22.17h532.070c12.223 0 22.17-9.946 22.17-22.17v-44.339zM647.096 580.436c-12.244 0-22.17-9.926-22.17-22.17v-443.392c0-12.244 9.926-22.17 22.17-22.17s22.17 9.926 22.17 22.17v443.392c0 12.243-9.926 22.17-22.17 22.17v0zM514.078 580.436c-12.243 0-22.17-9.926-22.17-22.17v-443.392c0-12.244 9.926-22.17 22.17-22.17s22.17 9.926 22.17 22.17v443.392c0 12.243-9.926 22.17-22.17 22.17v0zM381.060 580.436c-12.243 0-22.17-9.926-22.17-22.17v-443.392c0-12.244 9.926-22.17 22.17-22.17s22.17 9.926 22.17 22.17v443.392c0 12.243-9.926 22.17-22.17 22.17v0z" />
<glyph unicode="&#xe916;" glyph-name="user" d="M512.197 399.771c-145.511 0-263.91 120.813-263.91 269.29s118.4 269.29 263.91 269.29c145.511 0 263.91-120.813 263.91-269.29s-118.4-269.29-263.91-269.29v0zM512.197 889.389c-119.060 0-215.927-98.842-215.927-220.328s96.867-220.328 215.927-220.328c119.060 0 215.927 98.842 215.927 220.328s-96.867 220.328-215.927 220.328v0zM896.067-40.885h-767.739c-39.677 0-71.976 32.957-71.976 73.443 0 3.336 0.66 82.501 58.78 161.574 33.829 46.024 80.133 82.592 137.653 108.665 70.236 31.856 157.536 48.013 259.412 48.013s189.146-16.157 259.412-48.013c57.52-26.072 103.825-62.641 137.653-108.665 58.12-79.073 58.78-158.238 58.78-161.574 0-40.485-32.299-73.443-71.976-73.443v0zM512.197 301.847c-167.313 0-290.781-46.667-357.059-134.92-49.693-66.16-50.803-133.788-50.803-134.461 0-13.403 10.766-24.389 23.992-24.389h767.739c13.226 0 23.992 10.986 23.992 24.481 0 0.581-1.11 68.21-50.803 134.37-66.277 88.254-189.776 134.92-357.059 134.92v0z" />
<glyph unicode="&#xe917;" glyph-name="warning" d="M512.272 831.906l383.202-781.61h-769.445l383.202 781.61h3.041zM512.272 917.062c-19.782 0-39.558-13.612-54.743-39.537l-392.326-796.816c-29.599-55.781-4.054-100.362 57.784-100.362h778.568c61.826 0 87.4 44.553 57.784 100.362v0l-392.326 796.816c-15.169 25.925-34.973 39.537-54.743 39.537v0 0zM573.098 153.7c0-31.245-25.859-57.784-57.784-57.784s-57.784 26.539-57.784 57.784c0 34.287 25.859 60.826 57.784 60.826s57.784-26.539 57.784-60.826v0zM457.529 330.094v176.394c0 31.654 25.859 57.784 57.784 57.784s57.784-26.131 57.784-57.784v-176.394c0-31.654-25.859-57.784-57.784-57.784s-57.784 26.131-57.784 57.784z" />
<glyph unicode="&#xe918;" glyph-name="unknown" d="M378.391 297.854c6.366 47.040 19.010 86.033 37.932 116.98s50.134 62.336 93.637 94.168c37.844 27.234 63.751 47.924 77.721 62.071s24.227 28.383 30.77 42.707c6.543 14.324 9.815 29.974 9.815 46.951 0 24.758-7.516 44.917-22.547 60.479s-36.871 23.343-65.519 23.343c-27.234 0-53.759-4.863-79.578-14.589s-52.522-21.132-80.109-34.219l-41.381 93.372c73.212 39.966 145.716 59.949 217.514 59.949 60.48 0 108.049-15.12 142.71-45.36s51.991-73.123 51.991-128.652c0-42.442-11.229-80.904-33.688-115.388s-63.397-72.77-122.816-114.858c-36.783-26.173-63.309-49.692-79.578-70.559s-27.057-46.332-32.362-76.395h-104.513zM326.4 112.172c0 29.356 8.311 52.787 24.935 70.294s39.789 26.261 69.498 26.261c19.806 0 35.633-5.57 47.482-16.711s17.772-27.499 17.772-49.073c0-27.941-8.665-50.753-25.996-68.437s-39.435-26.526-66.315-26.526c-23.343 0-40.408 6.101-51.195 18.303s-16.181 27.499-16.181 45.89v0z" />
<glyph unicode="&#xe919;" glyph-name="download" d="M821.218 442.288l-256.889-266.667c-20.063-20.828-52.593-20.828-72.658 0l-256.889 266.667c-20.065 20.828-20.065 54.597 0 75.425s52.595 20.83 72.66 0l169.181-175.622v511.242c0 29.455 23.003 53.333 51.378 53.333s51.378-23.878 51.378-53.333v-511.242l169.182 175.622c10.032 10.413 23.181 15.62 36.329 15.62s26.297-5.207 36.329-15.622c20.065-20.828 20.065-54.595 0-75.423zM106.667 64.016c0 1.169 0.954 2.117 2.115 2.117h780.837c1.168 0 2.115-0.959 2.115-2.117v-106.699c0-1.169-0.954-2.117-2.115-2.117h-780.837c-1.168 0-2.115 0.959-2.115 2.117v106.699z" />
<glyph unicode="&#xe91a;" glyph-name="refresh" d="M795.905 737.321c-74.181 81.002-180.803 131.802-299.297 131.802-224.084 0-405.74-181.656-405.74-405.74h76.076c0 182.068 147.596 329.664 329.664 329.664 97.489 0 185.073-42.332 245.422-109.602l-118.628-118.627h278.946v278.946l-106.443-106.443zM826.272 463.383c0-182.068-147.596-329.664-329.664-329.664-97.489 0-185.073 42.332-245.42 109.602l118.627 118.627h-278.946v-278.946l106.443 106.443c74.181-81.002 180.803-131.802 299.297-131.802 224.084 0 405.74 181.656 405.74 405.74h-76.076z" />
<glyph unicode="&#xe91b;" glyph-name="data-movement" horiz-adv-x="1026" d="M241.726 716.8h676.944v-66.133h-679.561l104.75-94.1-46.735-48.833-187.932 174.901 187.932 174.965 46.735-49.458-102.134-91.342zM784.625 334.933h-677.959v-66.133h680.386l-104.386-91.733 46.933-49.067 187.733 172.8-187.733 172.8-46.933-49.067 101.959-89.6z" />
<glyph unicode="&#xe91c;" glyph-name="query" horiz-adv-x="1168" d="M287.566 336.423l-285.298 126.706v48.537l285.298 142.792v-83.813l-174.961-79.862 174.961-71.114v-83.246zM713.398 704.687l-153.797-424.138h-97.638l153.797 424.138h97.638zM884.976 419.672l174.961 71.114-174.961 79.862v83.813l285.298-142.792v-48.537l-285.298-126.706v83.246z" />
<glyph unicode="&#xf058;" glyph-name="check-circle" horiz-adv-x="878" d="M733.714 499.429c0 9.714-3.429 19.429-10.286 26.286l-52 51.429c-6.857 6.857-16 10.857-25.714 10.857s-18.857-4-25.714-10.857l-233.143-232.571-129.143 129.143c-6.857 6.857-16 10.857-25.714 10.857s-18.857-4-25.714-10.857l-52-51.429c-6.857-6.857-10.286-16.571-10.286-26.286s3.429-18.857 10.286-25.714l206.857-206.857c6.857-6.857 16.571-10.857 25.714-10.857 9.714 0 19.429 4 26.286 10.857l310.286 310.286c6.857 6.857 10.286 16 10.286 25.714zM877.714 406.858c0-242.286-196.571-438.857-438.857-438.857s-438.857 196.571-438.857 438.857 196.571 438.857 438.857 438.857 438.857-196.571 438.857-438.857z" />
<glyph unicode="&#xf06a;" glyph-name="exclamation-circle" horiz-adv-x="878" d="M438.857 822.857c242.286 0 438.857-196.571 438.857-438.857s-196.571-438.857-438.857-438.857-438.857 196.571-438.857 438.857 196.571 438.857 438.857 438.857zM512 110.286v108.571c0 10.286-8 18.857-17.714 18.857h-109.714c-10.286 0-18.857-8.571-18.857-18.857v-108.571c0-10.286 8.571-18.857 18.857-18.857h109.714c9.714 0 17.714 8.571 17.714 18.857zM510.857 306.857l10.286 354.857c0 4-1.714 8-5.714 10.286-3.429 2.857-8.571 4.571-13.714 4.571h-125.714c-5.143 0-10.286-1.714-13.714-4.571-4-2.286-5.714-6.286-5.714-10.286l9.714-354.857c0-8 8.571-14.286 19.429-14.286h105.714c10.286 0 18.857 6.286 19.429 14.286z" />
</font>
</defs>
</svg>
