<svg enable-background="new 0 0 275 65" viewBox="0 0 275 65" xmlns="http://www.w3.org/2000/svg"><path d="m-214-282.3c0-27.3 19.8-45.9 45-45.9 14.1 0 24.7 6.3 32.3 15.7l-6.4 4.1c-5.6-7.7-15.3-12.9-25.9-12.9-20.9 0-37 15.8-37 39 0 22.9 16.1 39 37 39 10.6 0 20.4-5.2 25.9-12.9l6.4 4c-7.8 9.7-18.2 15.8-32.3 15.8-25.2 0-45-18.6-45-45.9" fill="#f37424"/><path d="m50.4-238v-6.6l53.4-75.2h-53.4v-6.9h63v6.5l-53.5 75.3h54.4v6.9z" fill="#f37424"/><path d="m177.1-238v-88.7h56.3v6.9h-48.7v32.9h47.8v6.9h-47.8v35.1h48.7v6.9z" fill="#f37424"/><path d="m356.6-238-55.9-76.2v76.2h-7.6v-88.7h7.7l55.6 75.2v-75.2h7.6v88.7z" fill="#f37424"/><path d="m486.7-238-8.8-21.8h-46.9l-8.8 21.8h-8.8l36.3-88.7h9.4l36.3 88.7zm-32.3-80.6-20.9 51.9h41.9z" fill="#f37424"/><path d="m-39.7-326.8h-8.3l1.9 4.5 24.7 61.2 1.3 3.2 7.9 19.7h8.8z" fill="#385fa9"/><path d="m-48.6-306.8-4.1-10.2-32.6 79 8.9-.1 2.8-7.4 6.1-15 2.4-6 15.1-37z" fill="#385fa9"/><path d="m-214.3-176.5v-24.3h15.9v2.7h-12.9v7.8h12.6v2.7h-12.6v11.1z" fill="#385fa9"/><path d="m-193.4-185.9v-14.8h3v14.8c0 4.4 2.4 7.2 6.9 7.2s6.9-2.8 6.9-7.2v-14.8h3v14.8c0 6-3.3 9.9-9.9 9.9s-9.9-3.9-9.9-9.9z" fill="#385fa9"/><path d="m-167-176.5v-24.3h3v21.6h11.3v2.7z" fill="#385fa9"/><path d="m-147.6-176.5v-24.3h3v21.6h11.3v2.7z" fill="#385fa9"/><path d="m-125.5-176.5v-10.3l-9.6-14h3.5l7.5 11.3 7.5-11.3h3.5l-9.5 14v10.3z" fill="#385fa9"/><path d="m-114.9-184.1v-2.4h8.7v2.4z" fill="#385fa9"/><path d="m-80.6-176.5v-20l-8.3 20h-1.2l-8.2-20v20h-3v-24.3h4.3l7.5 18.3 7.6-18.3h4.3v24.3z" fill="#385fa9"/><path d="m-53.6-176.5-2.1-5.4h-12.1l-2.1 5.4h-3.5l9.7-24.3h3.7l9.8 24.3zm-8.2-21.1-5.2 13.1h10.3z" fill="#385fa9"/><path d="m-29-176.5-14.2-19.4v19.4h-3v-24.3h3.1l14 19v-19h3v24.3z" fill="#385fa9"/><path d="m-2.1-176.5-2.1-5.4h-12.1l-2.1 5.4h-3.6l9.7-24.3h3.7l9.8 24.3zm-8.2-21.1-5.2 13.1h10.3z" fill="#385fa9"/><path d="m3-188.6c0-7.5 5.6-12.5 12.5-12.5 4.3 0 7.3 1.9 9.4 4.5l-2.4 1.5c-1.5-2-4.1-3.3-7-3.3-5.3 0-9.3 4.1-9.3 9.9 0 5.7 4 9.9 9.3 9.9 2.9 0 5.3-1.4 6.5-2.6v-4.9h-8.3v-2.7h11.3v8.8c-2.3 2.5-5.6 4.2-9.5 4.2-6.9-.2-12.5-5.2-12.5-12.8z" fill="#385fa9"/><path d="m30.9-176.5v-24.3h15.9v2.7h-12.9v7.8h12.6v2.7h-12.6v8.4h12.9v2.7z" fill="#385fa9"/><path d="m52.5-176.5v-24.3h8.3c7.5 0 12.4 5.3 12.4 12.2s-4.9 12.1-12.4 12.1zm17.6-12.1c0-5.2-3.3-9.5-9.3-9.5h-5.3v18.9h5.3c5.9.1 9.3-4.2 9.3-9.4z" fill="#385fa9"/><g fill="#636466"><path d="m89.1-176.5v-24.3h10.8c4.2 0 6.8 2.5 6.8 6.2 0 3.1-2 5.1-4.3 5.6 2.6.4 4.7 3.1 4.7 6 0 3.9-2.6 6.5-7 6.5zm14.5-17.6c0-2.2-1.5-3.9-4.2-3.9h-7.3v7.8h7.3c2.8 0 4.2-1.7 4.2-3.9zm.5 10.8c0-2.2-1.5-4.2-4.5-4.2h-7.4v8.4h7.4c2.8 0 4.5-1.6 4.5-4.2z"/><path d="m112.9-176.5v-24.3h3v24.3z"/><path d="m121.5-188.6c0-7.5 5.6-12.5 12.5-12.5 4.3 0 7.3 1.9 9.4 4.5l-2.4 1.5c-1.5-2-4.1-3.3-7-3.3-5.3 0-9.3 4.1-9.3 9.9 0 5.7 4 9.9 9.3 9.9 2.9 0 5.3-1.4 6.5-2.6v-4.9h-8.3v-2.7h11.3v8.8c-2.3 2.5-5.6 4.2-9.5 4.2-6.9-.2-12.5-5.2-12.5-12.8z"/><path d="m159.7-176.5v-24.3h8.3c7.5 0 12.4 5.3 12.4 12.2s-4.9 12.1-12.4 12.1zm17.6-12.1c0-5.2-3.3-9.5-9.3-9.5h-5.3v18.9h5.3c5.8.1 9.3-4.2 9.3-9.4z"/><path d="m202-176.5-2.1-5.4h-12.1l-2.1 5.4h-3.5l9.7-24.3h3.7l9.8 24.3zm-8.2-21.1-5.2 13.1h10.3z"/><path d="m213.1-176.5v-21.5h-7.7v-2.7h18.4v2.7h-7.7v21.6h-3z"/><path d="m243.6-176.5-2.1-5.4h-12.1l-2.1 5.4h-3.5l9.7-24.3h3.7l9.8 24.3zm-8.2-21.1-5.2 13.1h10.3z"/><path d="m278.7-176.5-2.1-5.4h-12.1l-2.1 5.4h-3.5l9.7-24.3h3.7l9.8 24.3zm-8.1-21.1-5.2 13.1h10.3z"/><path d="m284.3-179.9 1.8-2.3c1.6 1.8 4.2 3.5 7.6 3.5 4.3 0 5.7-2.3 5.7-4.2 0-6.3-14.4-2.8-14.4-11.5 0-4 3.6-6.7 8.3-6.7 3.7 0 6.6 1.2 8.6 3.4l-1.8 2.2c-1.8-2-4.4-2.9-7-2.9-2.9 0-5 1.6-5 3.9 0 5.5 14.4 2.3 14.4 11.4 0 3.5-2.4 7.1-8.9 7.1-4.2 0-7.3-1.6-9.3-3.9z"/><path d="m335.6-176.5-2.1-5.4h-12.1l-2.1 5.4h-3.5l9.7-24.3h3.7l9.8 24.3zm-8.2-21.1-5.2 13.1h10.3z"/><path d="m352-179.9 1.8-2.3c1.6 1.8 4.2 3.5 7.6 3.5 4.3 0 5.7-2.3 5.7-4.2 0-6.3-14.4-2.8-14.4-11.5 0-4 3.6-6.7 8.3-6.7 3.7 0 6.6 1.2 8.6 3.4l-1.8 2.2c-1.8-2-4.4-2.9-7-2.9-2.9 0-5 1.6-5 3.9 0 5.5 14.4 2.3 14.4 11.4 0 3.5-2.4 7.1-8.9 7.1-4.3 0-7.3-1.6-9.3-3.9z"/><path d="m375.6-176.5v-24.3h15.9v2.7h-12.9v7.8h12.6v2.7h-12.6v8.4h12.9v2.7z"/><path d="m411.3-176.5-6.2-9.6h-4.8v9.6h-3v-24.3h9.7c4.4 0 7.6 2.8 7.6 7.3 0 4.4-3 6.8-6.3 7.1l6.5 9.9zm.2-16.9c0-2.7-2-4.6-4.8-4.6h-6.4v9.3h6.4c2.8-.1 4.8-2 4.8-4.7z"/><path d="m427.1-176.5-9.7-24.3h3.5l8.2 21 8.2-21h3.5l-9.8 24.3z"/><path d="m444.7-176.5v-24.3h3v24.3z"/><path d="m453.4-188.6c0-7.5 5.5-12.5 12.5-12.5 4.3 0 7.3 2.1 9.2 4.8l-2.5 1.4c-1.4-2-3.9-3.5-6.7-3.5-5.3 0-9.3 4.1-9.3 9.9 0 5.7 4 9.9 9.3 9.9 2.8 0 5.3-1.5 6.7-3.5l2.6 1.4c-2 2.8-4.9 4.8-9.2 4.8-7.2-.1-12.6-5.2-12.6-12.7z"/><path d="m479.8-176.5v-24.3h15.9v2.7h-12.9v7.8h12.6v2.7h-12.6v8.4h12.9v2.7z"/></g><path d="m1 18.2c0-10.5 7.6-17.6 17.2-17.6 5.4 0 9.5 2.4 12.4 6l-2.5 1.6c-2.1-3-5.9-5-10-5-8 0-14.2 6.1-14.2 15 0 8.8 6.2 15 14.2 15 4.1 0 7.8-2 10-5l2.5 1.5c-3 3.7-7 6.1-12.4 6.1-9.6.1-17.2-7.1-17.2-17.6" fill="#f37424"/><path d="m102.6 35.2v-2.5l20.5-28.9h-20.5v-2.7h24.2v2.5l-20.6 29h21v2.6z" fill="#f37424"/><path d="m151.3 35.2v-34.1h21.6v2.7h-18.7v12.6h18.4v2.7h-18.4v13.5h18.7v2.6z" fill="#f37424"/><path d="m220.3 35.2-21.5-29.3v29.3h-2.9v-34.1h2.9l21.4 28.9v-28.9h2.9v34.1z" fill="#f37424"/><path d="m270.3 35.2-3.4-8.4h-18l-3.4 8.4h-3.4l14-34.1h3.6l14 34.1zm-12.4-30.9-8 19.9h16.1z" fill="#f37424"/><path d="m67.9 1.1h-3.1l.7 1.7 9.5 23.6.5 1.2 3 7.6h3.4z" fill="#385fa9"/><path d="m64.5 8.8-1.6-3.9-12.5 30.3h3.5l1-2.9 2.4-5.7.9-2.3 5.8-14.3z" fill="#385fa9"/><path d="m.8 58.9v-9.3h6.1v1h-4.9v3h4.9v1h-4.9v4.3z" fill="#385fa9"/><path d="m8.9 55.3v-5.7h1.1v5.7c0 1.7.9 2.8 2.6 2.8s2.6-1.1 2.6-2.8v-5.7h1.2v5.7c0 2.3-1.3 3.8-3.8 3.8s-3.7-1.5-3.7-3.8z" fill="#385fa9"/><path d="m19 58.9v-9.3h1.2v8.3h4.3v1z" fill="#385fa9"/><path d="m26.5 58.9v-9.3h1.2v8.3h4.3v1z" fill="#385fa9"/><path d="m35 58.9v-3.9l-3.7-5.4h1.4l2.9 4.3 2.9-4.3h1.4l-3.7 5.4v3.9z" fill="#385fa9"/><path d="m39.1 56v-1h3.4v1z" fill="#385fa9"/><path d="m52.2 58.9v-7.7l-3.2 7.7h-.5l-3.2-7.7v7.7h-1.2v-9.3h1.7l2.9 7 2.9-7h1.7v9.3z" fill="#385fa9"/><path d="m62.6 58.9-.8-2.1h-4.6l-.8 2.1h-1.4l3.7-9.3h1.4l3.8 9.3zm-3.2-8.1-2 5h4z" fill="#385fa9"/><path d="m72.1 58.9-5.4-7.4v7.4h-1.2v-9.3h1.2l5.4 7.3v-7.3h1.2v9.3z" fill="#385fa9"/><path d="m82.4 58.9-.8-2.1h-4.6l-.8 2.1h-1.3l3.7-9.3h1.4l3.8 9.3zm-3.2-8.1-2 5h4z" fill="#385fa9"/><path d="m84.4 54.2c0-2.9 2.1-4.8 4.8-4.8 1.6 0 2.8.7 3.6 1.7l-.9.6c-.6-.8-1.6-1.3-2.7-1.3-2 0-3.6 1.6-3.6 3.8s1.6 3.8 3.6 3.8c1.1 0 2-.5 2.5-1v-1.9h-3.2v-1h4.4v3.4c-.9 1-2.1 1.6-3.7 1.6-2.7 0-4.8-2-4.8-4.9z" fill="#385fa9"/><path d="m95.1 58.9v-9.3h6.1v1h-5v3h4.9v1h-4.9v3.2h5v1h-6.1z" fill="#385fa9"/><path d="m103.4 58.9v-9.3h3.2c2.9 0 4.8 2 4.8 4.7s-1.9 4.7-4.8 4.7h-3.2zm6.7-4.7c0-2-1.3-3.6-3.6-3.6h-2v7.3h2c2.3 0 3.6-1.7 3.6-3.7z" fill="#385fa9"/><path d="m117.5 58.9v-9.3h4.2c1.6 0 2.6 1 2.6 2.4 0 1.2-.8 2-1.6 2.1 1 .2 1.8 1.2 1.8 2.3 0 1.5-1 2.5-2.7 2.5zm5.5-6.8c0-.8-.6-1.5-1.6-1.5h-2.8v3h2.8c1.1 0 1.6-.6 1.6-1.5zm.2 4.1c0-.9-.6-1.6-1.7-1.6h-2.9v3.2h2.9c1.1.1 1.7-.6 1.7-1.6z" fill="#636466"/><path d="m126.6 58.9v-9.3h1.2v9.3z" fill="#636466"/><path d="m129.9 54.2c0-2.9 2.1-4.8 4.8-4.8 1.6 0 2.8.7 3.6 1.7l-.9.6c-.6-.8-1.6-1.3-2.7-1.3-2 0-3.6 1.6-3.6 3.8s1.6 3.8 3.6 3.8c1.1 0 2-.5 2.5-1v-1.9h-3.2v-1h4.4v3.4c-.9 1-2.1 1.6-3.7 1.6-2.6 0-4.8-2-4.8-4.9z" fill="#636466"/><path d="m144.6 58.9v-9.3h3.2c2.9 0 4.8 2 4.8 4.7s-1.9 4.7-4.8 4.7h-3.2zm6.7-4.7c0-2-1.3-3.6-3.6-3.6h-2v7.3h2c2.3 0 3.6-1.7 3.6-3.7z" fill="#636466"/><path d="m160.8 58.9-.8-2.1h-4.6l-.8 2.1h-1.3l3.7-9.3h1.4l3.8 9.3zm-3.1-8.1-2 5h4z" fill="#636466"/><path d="m165.1 58.9v-8.3h-3v-1h7.1v1h-3v8.3z" fill="#636466"/><path d="m176.8 58.9-.8-2.1h-4.6l-.8 2.1h-1.3l3.7-9.3h1.4l3.8 9.3zm-3.1-8.1-2 5h4z" fill="#636466"/><path d="m190.3 58.9-.8-2.1h-4.6l-.8 2.1h-1.3l3.7-9.3h1.4l3.8 9.3zm-3.1-8.1-2 5h4z" fill="#636466"/><path d="m192.5 57.6.7-.9c.6.7 1.6 1.3 2.9 1.3 1.7 0 2.2-.9 2.2-1.6 0-2.4-5.5-1.1-5.5-4.4 0-1.5 1.4-2.6 3.2-2.6 1.4 0 2.5.5 3.3 1.3l-.7.9c-.7-.8-1.7-1.1-2.7-1.1-1.1 0-1.9.6-1.9 1.5 0 2.1 5.5.9 5.5 4.4 0 1.4-.9 2.7-3.4 2.7-1.7 0-2.8-.7-3.6-1.5z" fill="#636466"/><path d="m212.2 58.9-.8-2.1h-4.6l-.8 2.1h-1.3l3.7-9.3h1.4l3.8 9.3zm-3.2-8.1-2 5h4z" fill="#636466"/><path d="m218.5 57.6.7-.9c.6.7 1.6 1.3 2.9 1.3 1.7 0 2.2-.9 2.2-1.6 0-2.4-5.5-1.1-5.5-4.4 0-1.5 1.4-2.6 3.2-2.6 1.4 0 2.5.5 3.3 1.3l-.7.9c-.7-.8-1.7-1.1-2.7-1.1-1.1 0-1.9.6-1.9 1.5 0 2.1 5.5.9 5.5 4.4 0 1.4-.9 2.7-3.4 2.7-1.7 0-2.8-.7-3.6-1.5z" fill="#636466"/><path d="m227.6 58.9v-9.3h6.1v1h-5v3h4.9v1h-4.9v3.2h5v1h-6.1z" fill="#636466"/><path d="m241.3 58.9-2.4-3.7h-1.9v3.7h-1.2v-9.3h3.7c1.7 0 2.9 1.1 2.9 2.8s-1.1 2.6-2.4 2.7l2.5 3.8zm.1-6.5c0-1-.8-1.8-1.9-1.8h-2.4v3.6h2.4c1.1 0 1.9-.8 1.9-1.8z" fill="#636466"/><path d="m247.4 58.9-3.7-9.3h1.3l3.1 8.1 3.1-8.1h1.3l-3.8 9.3z" fill="#636466"/><path d="m254.1 58.9v-9.3h1.2v9.3z" fill="#636466"/><path d="m257.5 54.2c0-2.9 2.1-4.8 4.8-4.8 1.7 0 2.8.8 3.5 1.8l-1 .5c-.5-.8-1.5-1.4-2.6-1.4-2 0-3.6 1.6-3.6 3.8s1.6 3.8 3.6 3.8c1.1 0 2-.6 2.6-1.4l1 .5c-.8 1.1-1.9 1.8-3.6 1.8-2.6.3-4.7-1.7-4.7-4.6z" fill="#636466"/><path d="m267.6 58.9v-9.3h6.1v1h-5v3h4.9v1h-4.9v3.2h5v1h-6.1z" fill="#636466"/></svg>