<?xml version="1.0" encoding="utf-8"?>
<!-- Generator: Adobe Illustrator 23.0.3, SVG Export Plug-In . SVG Version: 6.00 Build 0)  -->
<svg version="1.1" id="Layer_1" xmlns="http://www.w3.org/2000/svg" xmlns:xlink="http://www.w3.org/1999/xlink" x="0px" y="0px"
	 viewBox="0 0 275 65" style="enable-background:new 0 0 275 65;" xml:space="preserve">
<style type="text/css">
	.st0{fill:#F37424;}
	.st1{fill:#385FA9;}
</style>
<g>
	<title>Cazena-Logo-Simple</title>
	<path class="st0" d="M2,32.43c0-10.43,7.57-17.54,17.17-17.54c4.83-0.07,9.41,2.16,12.35,6l-2.44,1.57
		c-2.34-3.12-6.02-4.95-9.92-4.93c-7.97,0-14.13,6.05-14.13,14.9c0,8.75,6.15,14.9,14.14,14.9c3.9,0.02,7.58-1.81,9.92-4.93
		l2.44,1.53c-3,3.71-6.96,6.05-12.35,6.05C9.57,49.97,2,42.86,2,32.43z"/>
	<path class="st0" d="M102.9,49.51v-2.75l20.44-28.73H102.9v-2.86h24.32v2.51L106.6,46.65h20.63v2.86L102.9,49.51z"/>
	<path class="st0" d="M151.55,49.48V15.17h21.46v2.86h-18.6v12.4h18.12v2.86h-18.12v13.35h18.6v2.86L151.55,49.48z"/>
	<path class="st0" d="M220.24,49.51l-21.48-29.09v29.09h-2.86V15.65h2.96l21.36,28.68V15.65h2.86v33.86H220.24z"/>
	<path class="st0" d="M269.51,49.03l-3.25-8.11h-17.47l-3.25,8.11h-3.43l13.67-33.38h3.55L273,49.03H269.51z M257.49,18.7
		l-7.98,19.83h16.02L257.49,18.7z"/>
	<polygon class="st1" points="68.62,15.65 65.45,15.65 66.17,17.37 66.17,17.37 75.62,40.77 75.62,40.77 76.1,41.98 79.14,49.51 
		82.5,49.51 	"/>
	<polygon class="st1" points="65.21,23.19 63.64,19.29 51.18,49.51 54.61,49.47 55.66,46.61 58,40.89 58.92,38.59 58.92,38.59 
		64.7,24.45 64.7,24.45 	"/>
</g>
</svg>
